<svg width="64" height="55" viewBox="0 0 64 55" fill="none" xmlns="http://www.w3.org/2000/svg">
<path d="M56.6666 0H7.33336C3.29002 0 0 3.28928 0 7.33336V37.7032C0 41.7466 3.28928 45.0359 7.33336 45.0359H20.7554C21.6557 45.0359 22.5144 45.4151 23.1207 46.0806L29.8815 53.5C31.1507 54.893 33.3428 54.893 34.6121 53.5L41.3728 46.0806C41.9792 45.4151 42.8379 45.0359 43.7381 45.0359H56.6666C60.71 45.0359 64 41.7466 64 37.7032V7.33262C64 3.28928 60.71 0 56.6666 0ZM60.3 37.7032C60.3 39.7064 58.6698 41.3359 56.6666 41.3359H42.1042C41.2039 41.3359 40.3453 41.7151 39.7389 42.3805L34.612 48.0066C33.3428 49.3994 31.1508 49.3994 29.8816 48.0066L24.7546 42.3805C24.1483 41.7151 23.2897 41.3359 22.3894 41.3359H7.33336C5.33019 41.3359 3.69998 39.7064 3.69998 37.7032V7.33262C3.69998 5.32945 5.33019 3.69924 7.33336 3.69924H56.6666C58.6698 3.69924 60.3 5.32945 60.3 7.33262V37.7032Z" fill="white"/>
<path d="M37.6347 9.99053C36.4229 9.99053 35.239 10.213 34.134 10.6378C32.9305 11.1003 31.5635 11.0996 30.3602 10.6366C29.2556 10.2115 28.0718 9.98905 26.8596 9.98905C24.2585 9.98905 21.8099 11.0028 19.9614 12.8454C16.2281 16.5846 16.1238 22.5327 19.7194 26.3807C19.7978 26.4658 19.877 26.5501 19.9621 26.6352L29.9832 36.6569C31.2329 37.9067 33.2592 37.9067 34.5088 36.6568L44.53 26.6345C44.6143 26.5501 44.6935 26.465 44.7653 26.3881C46.4547 24.5832 47.3856 22.2227 47.3856 19.7422C47.3856 17.13 46.3703 14.6799 44.5285 12.8439C42.6852 11.0036 40.2372 9.99053 37.6347 9.99053ZM42.0569 23.8669C42.0103 23.9172 41.9637 23.9683 41.9133 24.0186L34.5081 31.4238C33.2584 32.6735 31.2322 32.6735 29.9826 31.4237L22.578 24.0186C22.5277 23.9683 22.4811 23.9172 22.4285 23.8603C20.1952 21.4708 20.2618 17.7805 22.5765 15.4628C23.7242 14.3188 25.2449 13.689 26.8596 13.689C28.3981 13.689 29.8618 14.2662 30.9814 15.3148C31.6922 15.9806 32.7976 15.9813 33.5092 15.3163C34.631 14.2677 36.097 13.6905 37.6354 13.6905C39.2508 13.6905 40.7708 14.3195 41.9163 15.4635C43.0574 16.6016 43.6864 18.1209 43.6864 19.7429C43.6856 21.2806 43.1099 22.7429 42.0569 23.8669Z" fill="white"/>
</svg>
